<?xml version="1.0" standalone="no"?>
<!DOCTYPE svg PUBLIC "-//W3C//DTD SVG 20010904//EN"
 "http://www.w3.org/TR/2001/REC-SVG-20010904/DTD/svg10.dtd">
<svg version="1.0" xmlns="http://www.w3.org/2000/svg"
 width="500.000000pt" height="500.000000pt" viewBox="0 0 500.000000 500.000000"
 preserveAspectRatio="xMidYMid meet">
<metadata>
Created by potrace 1.16, written by Peter Selinger 2001-2019
</metadata>
<g transform="translate(0.000000,500.000000) scale(0.100000,-0.100000)"
fill="#000000" stroke="none">
<path d="M2910 4488 c-82 -23 -130 -90 -130 -180 0 -188 263 -245 341 -74 22
49 24 104 5 149 -17 43 -76 93 -123 106 -44 13 -47 12 -93 -1z"/>
<path d="M2446 4078 c-187 -22 -397 -183 -557 -428 -79 -121 -66 -105 -158
-194 -81 -79 -131 -150 -169 -239 -23 -54 -26 -76 -26 -167 0 -86 4 -116 23
-165 17 -42 26 -94 32 -174 5 -63 16 -140 25 -170 39 -137 137 -255 257 -311
68 -33 241 -80 289 -80 18 0 53 -16 89 -41 82 -55 190 -105 273 -126 144 -35
300 22 455 168 30 28 76 59 103 69 147 56 237 149 284 294 21 66 27 106 30
211 3 89 11 150 24 195 89 298 76 561 -35 735 -47 74 -111 130 -195 174 -69
35 -189 71 -240 71 -11 0 -44 19 -73 43 -140 113 -268 154 -431 135z m239
-692 c414 -239 420 -243 444 -289 29 -58 23 -103 -20 -151 -18 -22 -178 -120
-440 -272 -367 -212 -416 -237 -456 -237 -47 0 -82 20 -117 67 -20 27 -21 40
-24 522 -3 487 -2 496 18 533 32 55 92 85 150 74 14 -3 214 -114 445 -247z"/>
<path d="M3293 4020 c-56 -23 -69 -114 -22 -152 32 -27 94 -23 124 7 67 66
-14 182 -102 145z"/>
</g>
</svg>
